<svg width="18" height="12" viewBox="0 0 18 12" fill="none" xmlns="http://www.w3.org/2000/svg">
<path d="M7.71509 11.25H2.61255V10.6553L2.80884 10.6123L3.46216 10.4688L3.46704 10.4678L3.59204 10.4355C3.70284 10.3993 3.77438 10.3506 3.82056 10.2998C3.87908 10.2355 3.91919 10.1422 3.91919 9.99414V1.53711H2.8147C2.49968 1.53711 2.31023 1.60519 2.19946 1.69922L2.15649 1.74023L2.15259 1.74512C1.9998 1.90866 1.82998 2.1459 1.6438 2.46289L1.64282 2.46191L1.07153 3.46582L0.999268 3.5918H0.435791L0.44458 3.33301L0.524658 0.991211L0.532471 0.75H13.0549L13.0559 0.758789C13.1735 0.753676 13.2921 0.75 13.4114 0.75C14.0339 0.750015 14.6118 0.814463 15.1438 0.944336L15.5334 1.0498C15.789 1.1266 16.0369 1.21554 16.2766 1.31738L16.6301 1.48047L16.7639 1.5459L16.7688 1.69531L16.8333 3.46191L16.842 3.72168H16.2932L16.218 3.61426L15.4211 2.46484L15.4153 2.45605L15.4104 2.44824C15.3117 2.27912 15.2047 2.12926 15.0891 1.99902L15.0833 1.99316V1.99219C14.9834 1.87254 14.8588 1.78225 14.7053 1.7207L14.7004 1.71875C14.5571 1.65849 14.4155 1.61607 14.2756 1.59082L14.2659 1.58984L14.2571 1.58691C14.1364 1.55588 13.9684 1.53713 13.7463 1.53711C13.1727 1.53711 12.6527 1.67407 12.1829 1.94727L12.1838 1.94824C11.7412 2.21156 11.3666 2.65665 11.0735 3.31152L11.0745 3.3125C10.7966 3.94766 10.6487 4.84311 10.6487 6.01465C10.6487 7.17592 10.7911 8.07212 11.0598 8.71875L11.1653 8.95117C11.421 9.46918 11.7406 9.83436 12.1165 10.0645H12.1174C12.5763 10.3285 13.0906 10.4629 13.6663 10.4629C13.9973 10.4629 14.2493 10.4429 14.429 10.4092C14.6137 10.3649 14.7996 10.3034 14.9866 10.2236L14.9963 10.2197C15.1612 10.1571 15.2707 10.0732 15.343 9.97656C15.441 9.83486 15.5306 9.68466 15.6096 9.52441V9.52344L16.3118 8.11523L16.3801 7.97656H16.9504L16.9446 8.23242L16.8967 10.2871L16.8928 10.4414L16.7532 10.5078C16.2895 10.7267 15.7737 10.9045 15.2073 11.042C14.6327 11.1814 14.0068 11.25 13.3313 11.25C12.2701 11.25 11.3 11.0573 10.425 10.668L10.4211 10.667C9.65952 10.3149 9.0323 9.81404 8.54224 9.16699L8.34009 8.88086C7.81968 8.08522 7.56665 7.12035 7.56665 6C7.56666 5.14613 7.72093 4.38479 8.03735 3.72266L8.15942 3.48242C8.39183 3.05401 8.67803 2.67442 9.01587 2.34277C8.86532 2.0846 8.725 1.8864 8.59302 1.74512L8.58813 1.74023V1.73926C8.4986 1.63906 8.33711 1.55937 8.05786 1.54102L7.93091 1.53711H6.40845V9.99414L6.41528 10.0957C6.42923 10.1874 6.46323 10.2516 6.50708 10.2998C6.55325 10.3506 6.62483 10.3993 6.7356 10.4355L6.8606 10.4678L6.86548 10.4688L7.5188 10.6123L7.71509 10.6553V11.25Z" fill="white" stroke="#281452" stroke-width="0.5"/>
</svg>
