<svg width="18" height="18" viewBox="0 0 18 18" fill="none" xmlns="http://www.w3.org/2000/svg">
<rect width="18" height="18" fill="#0F223D"/>
<path d="M12.2675 13C11.43 13 10.6703 12.8506 9.9882 12.5517C9.31478 12.2452 8.7795 11.7931 8.38235 11.1954C7.9852 10.5977 7.78663 9.86595 7.78663 9.00007C7.78663 8.34107 7.9075 7.76254 8.14924 7.26447C8.39098 6.76639 8.71906 6.34877 9.13347 6.01162C9.55652 5.67446 10.04 5.42159 10.5839 5.25301C11.1365 5.08443 11.7192 5.00014 12.3322 5.00014C12.8243 5.00014 13.2776 5.04995 13.692 5.14956C14.1064 5.24918 14.4949 5.38711 14.8575 5.56335L14.9093 6.97711H14.7798L14.1323 6.05759C14.046 5.912 13.951 5.78174 13.8474 5.6668C13.7438 5.54419 13.6143 5.45224 13.4589 5.39094C13.3294 5.3373 13.1999 5.29899 13.0704 5.276C12.9495 5.24535 12.7941 5.23002 12.6042 5.23002C12.1034 5.23002 11.6459 5.34879 11.2314 5.58634C10.8257 5.82388 10.4976 6.21851 10.2472 6.77022C10.0055 7.31427 9.88459 8.06139 9.88459 9.01156C9.88459 9.95407 10.0011 10.7012 10.2343 11.2529C10.4674 11.7969 10.7825 12.1877 11.1796 12.4253C11.5854 12.6552 12.0387 12.7701 12.5394 12.7701C12.8157 12.7701 13.0359 12.7548 13.1999 12.7241C13.3639 12.6858 13.528 12.6322 13.692 12.5632C13.856 12.5019 13.9812 12.4138 14.0676 12.2989C14.1539 12.1762 14.2316 12.046 14.3007 11.9081L14.8705 10.7816H15L14.9611 12.4253C14.5985 12.5939 14.1928 12.7318 13.7438 12.8391C13.2949 12.9463 12.8028 13 12.2675 13Z" fill="white"/>
<path d="M4.76123 13V12.8851L5.29219 12.7701C5.64617 12.7012 5.82316 12.5096 5.82316 12.1954L5.82318 5.22988H4.7224C4.40296 5.22988 4.17417 5.30651 4.03603 5.45976C3.89789 5.60535 3.75112 5.80841 3.59572 6.06894L3.1295 6.87353H3L3.06475 5L12.3322 5.00014C12.3322 5.00014 11.7332 5.22987 11.1104 5.45976C10.53 5.67401 10.2472 6.5 10.2472 6.5L9.99321 6.06894C9.84644 5.80841 9.70399 5.60535 9.56585 5.45976C9.42771 5.30651 9.19892 5.22988 8.87948 5.22988L7.43943 5.22987L7.43941 12.1954C7.43941 12.5096 7.6164 12.7011 7.97037 12.7701L8.50134 12.885V13L4.76123 13Z" fill="white"/>
</svg>
